# AST/ASF file generated using VICON BodyLanguage
# -----------------------------------------------
:version 1.10
:name VICON
:units
  mass 1.0
  length 0.45
  angle deg
:documentation
   .ast/.asf automatically generated from VICON data using
   VICON BodyBuilder and BodyLanguage model FoxedUp or BRILLIANT.MOD
:root
   order TX TY TZ RX RY RZ
   axis XYZ
   position 0 0 0  
   orientation 0 0 0 
:bonedata
  begin
     id 1 
     name lhipjoint
     direction 0.535335 -0.74333 0.401095 
     length 2.04549 
     axis 0 0 0  XYZ
  end
  begin
     id 2 
     name lfemur
     direction 0.34202 -0.939693 0  
     length 6.95643  
     axis 0 0 20  XYZ
    dof rx ry rz
    limits (-160.0 20.0)
           (-70.0 70.0)
           (-60.0 70.0)
  end
  begin
     id 3 
     name ltibia
     direction 0.34192 -0.939729 0   
     length 5.55969   
     axis 0 0 20   XYZ
    dof rx
    limits (-10.0 170.0)
  end
  begin
     id 4 
     name lfoot
     direction 0.216943 -0.596046 0.773088   
     length 2.27918   
     axis -90 7.62852e-016 20   XYZ
    dof rx rz
    limits (-45.0 90.0)
           (-70.0 20.0)
  end
  begin
     id 5 
     name ltoes
     direction 1.53519e-011 -4.21748e-011 1   
     length 1.05562   
     axis -90 7.62852e-016 20   XYZ
    dof rx
    limits (-90.0 20.0)
  end
  begin
     id 6 
     name rhipjoint
     direction -0.576368 -0.719173 0.38806   
     length 2.1142  
     axis 0 0 0  XYZ 
  end
  begin
     id 7 
     name rfemur
     direction -0.34202 -0.939693 0   
     length 7.07928   
     axis 0 0 -20   XYZ
    dof rx ry rz
    limits (-160.0 20.0)
           (-70.0 70.0)
           (-70.0 60.0)
  end
  begin
     id 8 
     name rtibia
     direction -0.34202 -0.939693 0   
     length 5.79974   
     axis 0 0 -20   XYZ
    dof rx
    limits (-10.0 170.0)
 end
 begin
     id 9 
     name rfoot
     direction -0.189288 -0.520065 0.832888   
     length 2.42173  
     axis -90 -7.62852e-016 -20   XYZ
    dof rx rz
    limits (-45.0 90.0)
           (-20.0 70.0)
  end
  begin
     id 10 
     name rtoes
     direction -1.53574e-011 -4.21658e-011 1   
     length 1.14469   
     axis -90 -7.62852e-016 -20   XYZ
    dof rx
    limits (-90.0 20.0)
  end
  begin
     id 11 
     name lowerback
     direction -0.00135702 0.993803 0.111144   
     length 1.91308   
     axis 0 0 0   XYZ
    dof rx ry rz
    limits (-20.0 45.0)
           (-30.0 30.0)
           (-30.0 30.0)
  end
  begin
     id 12 
     name upperback
     direction -0.0056745 0.999813 0.0184631   
     length 1.9212   
     axis 0 0 0   XYZ
    dof rx ry rz
    limits (-20.0 45.0)
           (-30.0 30.0)
           (-30.0 30.0)
  end
  begin
     id 13 
     name thorax
     direction -0.00733434 0.999426 -0.0330788   
     length 1.94196   
     axis 0 0 0   XYZ
    dof rx ry rz
    limits (-20.0 45.0)
           (-30.0 30.0)
           (-30.0 30.0)
  end
  begin
     id 14 
     name lowerneck
     direction 0.0563074 0.996944 -0.0541571   
     length 2.34257   
     axis 0 0 0   XYZ
    dof rx ry rz
    limits (-20.0 45.0)
           (-30.0 30.0)
           (-30.0 30.0)
  end
  begin
     id 15 
     name upperneck
     direction -0.0544519 0.976166 -0.210085   
     length 2.32506   
     axis 0 0 0   XYZ
    dof rx ry rz
    limits (-20.0 45.0)
           (-30.0 30.0)
           (-30.0 30.0)
  end
  begin
     id 16
     name head
     direction -0.0226035 0.997615 -0.0652205  
     length 2.3648  
     axis 0 0 0   XYZ
    dof rx ry rz
    limits (-20.0 45.0)
           (-30.0 30.0)
           (-30.0 30.0)
  end
  begin
     id 17 
     name lclavicle
     direction 0.92109 0.381297 -0.0787716  
     length 4.0487  
     axis 0 0 0   XYZ
    dof ry rz
    limits (-20.0 10.0)
           (0.0 20.0)
  end
  begin
     id 18 
     name lhumerus
     direction 1 -4.48986e-011 3.56724e-027   
     length 4.94991   
     axis 180 -30 -90   XYZ
    dof rx ry rz
    limits (-60.0 90.0)
           (-90.0 90.0)
           (-90.0 90.0)
  end
  begin
     id 19
     name lradius
     direction 1 -4.48981e-011 8.62147e-027   
     length 2.7606   
     axis 180 -30 -90   XYZ
    dof rx
    limits (-10.0 170.0)
  end
  begin
     id 20
     name lwrist
     direction 1 -4.48989e-011 1.59799e-026   
     length 1.3803   
     axis -1.17785e-014 90 90   XYZ
    dof ry
    limits (-180.0 0.0)
 end
  begin
     id 21 
     name lhand
     direction 1 -4.48896e-011 3.19599e-026   
     length 0.843936   
     axis -2.03931e-014 90 90   XYZ
    dof rx rz
    limits (-90.0 90.0)
           (-45.0 45.0)
  end
  begin
     id 22 
     name lfingers
     direction 1 -4.48887e-011 6.39197e-026   
     length 0.680403   
     axis -4.07862e-014 90 90   XYZ
    dof rx
    limits (0.0 90.0)
  end
  begin
     id 23
     name lthumb
     direction 0.707107 -6.348e-011 0.707107   
     length 0.976926   
     axis -90 45 2.85299e-015   XYZ
    dof rx rz
    limits (-45.0 45.0)
           (-45.0 45.0)
  end
  begin
     id 24 
     name rclavicle
     direction -0.951104 0.307692 -0.026953   
     length 4.21801  
     axis 0 0 0   XYZ 
    dof ry rz
    limits (-10.0 20.0)
           (-20.0 0.0)
  end
  begin
     id 25 
     name rhumerus
     direction -1 -4.4896e-011 -1.8171e-018  
     length 4.32982   
     axis 180 30 90   XYZ
    dof rx ry rz
    limits (-90.0 60.0)
           (-90.0 90.0)
           (-90.0 90.0)
  end
  begin
     id 26 
     name rradius
     direction -1 -4.48959e-011 8.25165e-027   
     length 3.20057   
     axis 180 30 90   XYZ
    dof rx
    limits (-10.0 170.0)
  end
  begin
     id 27 
     name rwrist
     direction -1 -4.48997e-011 1.59799e-026   
     length 1.60029   
     axis -1.17785e-014 -90 -90   XYZ
    dof ry
    limits (-180.0 0.0)
  end
  begin
     id 28
     name rhand
     direction -1 -4.49023e-011 3.19599e-026   
     length 0.960433   
     axis -2.03931e-014 -90 -90   XYZ
    dof rx rz
    limits (-90.0 90.0)
           (-45.0 45.0)
  end
  begin
     id 29
     name rfingers
     direction -1 -4.48802e-011 6.39197e-026   
     length 0.774326   
     axis -4.07862e-014 -90 -90   XYZ
    dof rx
    limits (0.0 90.0)
  end
  begin
     id 30
     name rthumb
     direction -0.707107 -6.34876e-011 0.707107   
     length 1.11178   
     axis -90 -45 -2.85299e-015   XYZ
    dof rx rz
    limits (-45.0 45.0)
           (-45.0 45.0)
  end
:hierarchy
  begin
    root lhipjoint rhipjoint lowerback
    lhipjoint lfemur
    lfemur ltibia
    ltibia lfoot
    lfoot ltoes
    rhipjoint rfemur
    rfemur rtibia
    rtibia rfoot
    rfoot rtoes
    lowerback upperback
    upperback thorax
    thorax lowerneck lclavicle rclavicle
    lowerneck upperneck
    upperneck head
    lclavicle lhumerus
    lhumerus lradius
    lradius lwrist
    lwrist lhand lthumb
    lhand lfingers
    rclavicle rhumerus
    rhumerus rradius
    rradius rwrist
    rwrist rhand rthumb
    rhand rfingers
end

#!OML:ASF C:\KaitlinTest1\Natural Motions\Nikki\Session 2\Nikki.ASF
:FULLY-SPECIFIED
:DEGREES
20
root -13.2544 16.5401 4.85558 -81.0639 87.8444 -89.0108
lowerback -10.3713 -1.74902 2.50138
upperback -3.7269 -2.42643 -0.557149
thorax 1.79938 -1.17165 -2.26288
lowerneck -5.74942 -10.4259 -10.3231
upperneck 6.14309 42.0186 5.8416
head 167.072 63.2596 -38.2509
rclavicle -1.49337e-014 -8.34896e-015
rhumerus -39.0144 -25.3486 -80.2094
rradius 17.4679
rwrist 21.7449
rhand -35.5068 2.0959
rfingers 7.12502
rthumb -8.63388 -27.7075
lclavicle -1.49337e-014 -8.34896e-015
lhumerus -40.812 15.5985 81.7479
lradius 21.4098
lwrist -43.1827
lhand -34.1181 3.55108
lfingers 7.12502
lthumb -7.29352 33.4054
rfemur -5.21119 -15.6613 21.5789
rtibia 11.2863
rfoot -10.9552 9.18724
rtoes 1.82882e-014
lfemur -12.3583 15.1981 -17.1002
ltibia 20.56
lfoot -8.30088 -16.3145
ltoes -6.36111e-014
21
root -13.2539 16.54 4.85576 -81.0601 87.8432 -89.0019
lowerback -10.368 -1.74721 2.49921
upperback -3.73038 -2.42362 -0.555902
thorax 1.79428 -1.17031 -2.25985
lowerneck -5.73937 -10.44 -10.3175
upperneck 6.13663 41.9762 5.82559
head 166.982 63.295 -38.3033
rclavicle -1.32192e-014 -8.74653e-015
rhumerus -39.0412 -25.3286 -80.2017
rradius 17.4641
rwrist 21.719
rhand -35.4691 2.08183
rfingers 7.12502
rthumb -8.59747 -27.7231
lclavicle -1.32192e-014 -8.74653e-015
lhumerus -40.8258 15.5882 81.7794
lradius 21.3949
lwrist -43.1926
lhand -34.1496 3.66814
lfingers 7.12502
lthumb -7.32395 33.5214
rfemur -5.20197 -15.6384 21.5763
rtibia 11.2921
rfoot -10.9776 9.16679
rtoes -1.43125e-014
lfemur -12.3494 15.1693 -17.0931
ltibia 20.5595
lfoot -8.26352 -16.3067
ltoes -7.4743e-014
22
root -13.2543 16.5397 4.85656 -81.2679 87.8535 -89.2183
lowerback -10.3638 -1.75258 2.47662
upperback -3.74885 -2.42768 -0.548557
thorax 1.77387 -1.17239 -2.23943
lowerneck -5.70444 -10.4277 -10.3466
upperneck 6.14626 41.9866 5.82835
head 167.043 63.2667 -38.2485
rclavicle 1.42131e-014 1.11319e-014
rhumerus -39.1022 -25.3483 -80.1466
rradius 17.4607
rwrist 21.7502
rhand -35.4736 2.11786
rfingers 7.12502
rthumb -8.60179 -27.6869
lclavicle 1.42131e-014 1.11319e-014
lhumerus -40.8537 15.5859 81.8294
lradius 21.4061
lwrist -43.0303
lhand -34.0427 3.6742
lfingers 7.12502
lthumb -7.22079 33.531
rfemur -5.22825 -15.6438 21.5741
rtibia 11.3176
rfoot -10.9646 9.16431
rtoes 3.97569e-015
lfemur -12.3546 15.1617 -17.1068
ltibia 20.549
lfoot -8.26033 -16.2899
ltoes -3.18055e-014
23
root -13.2534 16.5401 4.85789 -81.3972 87.813 -89.3669
lowerback -10.4127 -1.74258 2.5105
upperback -3.74018 -2.41905 -0.543526
thorax 1.80883 -1.16751 -2.25429
lowerneck -5.71155 -10.4333 -10.3386
upperneck 6.1371 41.9664 5.82914
head 167.064 63.2785 -38.2354
rclavicle -2.34814e-014 -3.18055e-015
rhumerus -39.1121 -25.4063 -80.1189
rradius 17.4423
rwrist 21.7916
rhand -35.4584 2.0997
rfingers 7.12502
rthumb -8.58719 -27.7057
lclavicle -2.34814e-014 -3.18055e-015
lhumerus -40.8555 15.5567 81.8547
lradius 21.4516
lwrist -43.0321
lhand -34.0419 3.72321
lfingers 7.12502
lthumb -7.22004 33.58
rfemur -5.24841 -15.6201 21.6274
rtibia 11.325
rfoot -10.9611 9.14689
rtoes 2.06736e-014
lfemur -12.3769 15.1632 -17.0622
ltibia 20.5459
lfoot -8.25626 -16.2978
ltoes 5.24792e-014
24
root -13.2538 16.54 4.85845 -81.2459 87.8395 -89.1918
lowerback -10.3623 -1.74578 2.47981
upperback -3.75902 -2.41842 -0.54848
thorax 1.76287 -1.1679 -2.23981
lowerneck -5.68525 -10.4234 -10.3523
upperneck 6.16567 42.0344 5.84965
head 167.128 63.2007 -38.1913
rclavicle -1.06598e-014 -4.77083e-015
rhumerus -39.1853 -25.4273 -80.0653
rradius 17.4391
rwrist 21.8587
rhand -35.403 2.04874
rfingers 7.12502
rthumb -8.53371 -27.7588
lclavicle -1.06598e-014 -4.77083e-015
lhumerus -40.9165 15.547 81.8531
lradius 21.4191
lwrist -43.2065
lhand -34.0725 3.75534
lfingers 7.12502
lthumb -7.24953 33.6112
rfemur -5.23663 -15.6144 21.5903
rtibia 11.349
rfoot -10.9621 9.13781
rtoes 2.46493e-014
lfemur -12.3456 15.1338 -17.0845
ltibia 20.5405
lfoot -8.28695 -16.2712
ltoes 3.18055e-014
25
root -13.2537 16.54 4.8587 -81.4742 87.8321 -89.4236
lowerback -10.3654 -1.74488 2.48689
upperback -3.76459 -2.41769 -0.547324
thorax 1.75855 -1.16758 -2.24249
lowerneck -5.66627 -10.4495 -10.3328
upperneck 6.15403 41.9551 5.82474
head 166.973 63.2657 -38.282
rclavicle 7.23079e-015 1.59028e-015
rhumerus -39.2095 -25.573 -79.9696
rradius 17.3625
rwrist 22.0317
rhand -35.4127 2.02739
rfingers 7.12502
rthumb -8.54306 -27.7798
lclavicle 7.23079e-015 1.59028e-015
lhumerus -40.9434 15.5912 81.8305
lradius 21.3648
lwrist -43.4134
lhand -34.1367 3.75346
lfingers 7.12502
lthumb -7.31152 33.6071
rfemur -5.24011 -15.6507 21.6037
rtibia 11.3453
rfoot -10.9843 9.16532
rtoes 1.90833e-014
lfemur -12.3476 15.0917 -17.0725
ltibia 20.5453
lfoot -8.28528 -16.2234
ltoes 6.20208e-014
26
root -13.2538 16.539 4.85902 -81.4923 87.8398 -89.4365
lowerback -10.3634 -1.74416 2.47461
upperback -3.77028 -2.41535 -0.541639
thorax 1.75252 -1.16638 -2.22924
lowerneck -5.64456 -10.4385 -10.356
upperneck 6.16257 41.975 5.83191
head 167.049 63.23 -38.2229
rclavicle -4.44781e-015 -8.74653e-015
rhumerus -39.2471 -25.59 -79.9213
rradius 17.3537
rwrist 22.0723
rhand -35.3999 2.02152
rfingers 7.12502
rthumb -8.53072 -27.7862
lclavicle -4.44781e-015 -8.74653e-015
lhumerus -40.971 15.6195 81.8629
lradius 21.3756
lwrist -43.4195
lhand -34.211 3.75565
lfingers 7.12502
lthumb -7.38319 33.6068
rfemur -5.2337 -15.6719 21.5945
rtibia 11.3585
rfoot -11.0188 9.18018
rtoes 2.70347e-014
lfemur -12.3386 15.1085 -17.0778
ltibia 20.5404
lfoot -8.26029 -16.2452
ltoes 1.27222e-014
27
root -13.2533 16.5398 4.85887 -81.2809 87.8384 -89.2204
lowerback -10.3817 -1.73715 2.49136
upperback -3.75753 -2.40844 -0.549079
thorax 1.77506 -1.16271 -2.24655
lowerneck -5.66112 -10.4302 -10.3609
upperneck 6.17368 42.0364 5.85029
head 167.14 63.16 -38.1706
rclavicle -3.4191e-014 -8.34896e-015
rhumerus -39.2326 -25.5012 -79.9981
rradius 17.3802
rwrist 21.886
rhand -35.4073 1.96789
rfingers 7.12502
rthumb -8.53783 -27.8395
lclavicle -3.4191e-014 -8.34896e-015
lhumerus -40.9293 15.4392 81.9795
lradius 21.3706
lwrist -43.2545
lhand -34.2287 3.77257
lfingers 7.12502
lthumb -7.40029 33.6231
rfemur -5.23026 -15.6728 21.5947
rtibia 11.3523
rfoot -11.0346 9.18736
rtoes -3.73715e-014
lfemur -12.3361 15.0975 -17.0748
ltibia 20.546
lfoot -8.26592 -16.2349
ltoes 6.67916e-014
28
root -13.2534 16.5402 4.86012 -81.1578 87.8375 -89.0971
lowerback -10.3722 -1.73205 2.4867
upperback -3.76773 -2.4004 -0.554431
thorax 1.7597 -1.15893 -2.24799
lowerneck -5.643 -10.4616 -10.3344
upperneck 6.15501 41.932 5.81993
head 166.958 63.2518 -38.2778
rclavicle 1.47598e-014 3.57812e-015
rhumerus -39.2772 -25.569 -79.9334
rradius 17.3618
rwrist 21.9709
rhand -35.3433 1.91921
rfingers 7.12502
rthumb -8.47608 -27.8907
lclavicle 1.47598e-014 3.57812e-015
lhumerus -40.9372 15.465 81.9512
lradius 21.3375
lwrist -43.3525
lhand -34.1711 3.81194
lfingers 7.12502
lthumb -7.3447 33.6645
rfemur -5.23687 -15.6765 21.5998
rtibia 11.3584
rfoot -10.9949 9.18786
rtoes 2.06736e-014
lfemur -12.3364 15.1187 -17.0711
ltibia 20.5468
lfoot -8.27789 -16.2619
ltoes -5.56597e-014
29
root -13.2528 16.5403 4.86016 -81.0624 87.8204 -89.0038
lowerback -10.3941 -1.72823 2.51035
upperback -3.75883 -2.39847 -0.553559
thorax 1.78 -1.15773 -2.26117
lowerneck -5.66248 -10.4628 -10.3187
upperneck 6.1566 41.9537 5.83027
head 166.981 63.2316 -38.2717
rclavicle 8.77137e-015 -3.97569e-016
rhumerus -39.2839 -25.6519 -79.88
rradius 17.3072
rwrist 22.0599
rhand -35.3311 1.88898
rfingers 7.12502
rthumb -8.46435 -27.9214
lclavicle 8.77137e-015 -3.97569e-016
lhumerus -40.9639 15.4583 81.9752
lradius 21.4035
lwrist -43.2913
lhand -34.1805 3.80612
lfingers 7.12502
lthumb -7.35381 33.6583
rfemur -5.25249 -15.6884 21.6135
rtibia 11.3872
rfoot -11.0197 9.20739
rtoes 3.49861e-014
lfemur -12.3327 15.1476 -17.0542
ltibia 20.5337
lfoot -8.26719 -16.2631
ltoes 5.24792e-014
30
root -13.2528 16.5403 4.86066 -80.9997 87.8554 -88.9547
lowerback -10.4093 -1.73157 2.47703
upperback -3.76314 -2.39926 -0.565356
thorax 1.78474 -1.15783 -2.25523
lowerneck -5.65405 -10.4542 -10.3351
upperneck 6.14736 41.9283 5.82304
head 167.007 63.2595 -38.2475
rclavicle -2.72832e-014 -1.23246e-014
rhumerus -39.3048 -25.6964 -79.8387
rradius 17.2814
rwrist 22.1586
rhand -35.3385 1.80076
rfingers 7.12502
rthumb -8.4715 -28.0093
lclavicle -2.72832e-014 -1.23246e-014
lhumerus -40.9927 15.4447 81.987
lradius 21.4569
lwrist -43.2866
lhand -34.1615 3.77964
lfingers 7.12502
lthumb -7.33544 33.6325
rfemur -5.27458 -15.6748 21.5821
rtibia 11.4097
rfoot -11.0377 9.1959
rtoes -2.46493e-014
lfemur -12.3482 15.1868 -17.0986
ltibia 20.5263
lfoot -8.26774 -16.3091
ltoes 3.81667e-014
31
root -13.2544 16.5393 4.86074 -81.3798 87.8669 -89.3237
lowerback -10.4008 -1.72941 2.47342
upperback -3.74816 -2.39626 -0.580367
thorax 1.79533 -1.15635 -2.26845
lowerneck -5.65694 -10.4425 -10.3376
upperneck 6.13387 41.9132 5.83657
head 167.163 63.2503 -38.1398
rclavicle 7.70291e-015 9.93923e-015
rhumerus -39.3225 -25.8171 -79.7793
rradius 17.2541
rwrist 22.2931
rhand -35.2888 1.80346
rfingers 7.12502
rthumb -8.42348 -28.0086
lclavicle 7.70291e-015 9.93923e-015
lhumerus -40.9563 15.4413 82.0017
lradius 21.4288
lwrist -43.265
lhand -34.224 3.79687
lfingers 7.12502
lthumb -7.39578 33.6476
rfemur -5.28675 -15.6782 21.5741
rtibia 11.447
rfoot -11.0465 9.17242
rtoes 5.56597e-014
lfemur -12.3324 15.1408 -17.1041
ltibia 20.5117
lfoot -8.24362 -16.2807
ltoes -1.11319e-014
32
root -13.2537 16.5402 4.86141 -80.875 87.8552 -88.8489
lowerback -10.4276 -1.72563 2.47713
upperback -3.76599 -2.39135 -0.570998
thorax 1.79202 -1.1537 -2.26085
lowerneck -5.64752 -10.4417 -10.3414
upperneck 6.13943 41.92 5.8359
head 167.151 63.2385 -38.1436
rclavicle 1.12065e-014 -1.59028e-015
rhumerus -39.3427 -25.8529 -79.7192
rradius 17.1984
rwrist 22.3097
rhand -35.3035 1.92185
rfingers 7.12502
rthumb -8.43769 -27.8896
lclavicle 1.12065e-014 -1.59028e-015
lhumerus -40.9856 15.4708 81.9976
lradius 21.4199
lwrist -43.2996
lhand -34.2219 3.7676
lfingers 7.12502
lthumb -7.39379 33.6184
rfemur -5.33214 -15.7063 21.5968
rtibia 11.4618
rfoot -11.0497 9.21895
rtoes -3.97569e-015
lfemur -12.3652 15.1674 -17.0987
ltibia 20.5127
lfoot -8.22873 -16.2979
ltoes -2.06736e-014
33
root -13.2542 16.5398 4.86204 -81.0403 87.878 -88.9949
lowerback -10.4031 -1.72503 2.45408
upperback -3.76304 -2.38787 -0.578177
thorax 1.78256 -1.15215 -2.25412
lowerneck -5.65001 -10.4556 -10.3314
upperneck 6.13283 41.8919 5.82735
head 167.096 63.2613 -38.1795
rclavicle 3.81915e-014 6.75868e-015
rhumerus -39.366 -25.934 -79.6585
rradius 17.1681
rwrist 22.3775
rhand -35.3185 1.93922
rfingers 7.12502
rthumb -8.45217 -27.8716
lclavicle 3.81915e-014 6.75868e-015
lhumerus -40.982 15.4279 82.0393
lradius 21.4257
lwrist -43.2464
lhand -34.206 3.76151
lfingers 7.12502
lthumb -7.37837 33.6128
rfemur -5.30992 -15.6872 21.5663
rtibia 11.47
rfoot -11.0297 9.2035
rtoes 7.95139e-016
lfemur -12.3383 15.131 -17.1157
ltibia 20.5055
lfoot -8.23041 -16.2703
ltoes 5.24792e-014
